HIERARCHY
ROOT Root
{
  OFFSET 0.0 0.0 0.0
  CHANNELS 6 Xposition Yposition Zposition Zrotation Yrotation Xrotation
  JOINT Hips
  {
    OFFSET 0.0 100.0 0.0
    CHANNELS 6 Xposition Yposition Zposition Zrotation Yrotation Xrotation
    JOINT Spine1
    {
      OFFSET -0.013727 5.003763 -0.053727
      CHANNELS 3 Zrotation Yrotation Xrotation
      JOINT Spine2
      {
        OFFSET -0.0 7.125301 -0.029825
        CHANNELS 3 Zrotation Yrotation Xrotation
        JOINT Chest
        {
          OFFSET -1e-06 7.550063 -0.815971
          CHANNELS 3 Zrotation Yrotation Xrotation
          JOINT Neck1
          {
            OFFSET -0.181677 26.311295 -0.553348
            CHANNELS 3 Zrotation Yrotation Xrotation
            JOINT Neck2
            {
              OFFSET -3e-06 7.709397 2.302585
              CHANNELS 3 Zrotation Yrotation Xrotation
              JOINT Head
              {
                OFFSET -5e-06 6.128916 1.953709
                CHANNELS 3 Zrotation Yrotation Xrotation
                JOINT HeadEnd
                {
                  OFFSET 0.003598 16.065403 -1.835379
                  CHANNELS 3 Zrotation Yrotation Xrotation
                }
                JOINT Jaw
                {
                  OFFSET 0.002637 0.475592 3.094941
                  CHANNELS 3 Zrotation Yrotation Xrotation
                }
                JOINT LeftEye
                {
                  OFFSET 3.206381 5.380205 7.586883
                  CHANNELS 3 Zrotation Yrotation Xrotation
                }
                JOINT RightEye
                {
                  OFFSET -3.22244 5.361869 7.558234
                  CHANNELS 3 Zrotation Yrotation Xrotation
                }
              }
            }
          }
          JOINT LeftShoulder
          {
            OFFSET 1.621652 23.237164 5.113413
            CHANNELS 3 Zrotation Yrotation Xrotation
            JOINT LeftArm
            {
              OFFSET 14.919846 2e-06 -5.502326
              CHANNELS 3 Zrotation Yrotation Xrotation
              JOINT LeftForeArm
              {
                OFFSET 28.739307 0.0 -0.002588
                CHANNELS 3 Zrotation Yrotation Xrotation
                JOINT LeftHand
                {
                  OFFSET 27.093981 -1e-06 0.002609
                  CHANNELS 3 Zrotation Yrotation Xrotation
                  JOINT LeftHandThumb1
                  {
                    OFFSET 2.276482 -1.392045 3.191413
                    CHANNELS 3 Zrotation Yrotation Xrotation
                    JOINT LeftHandThumb2
                    {
                      OFFSET 4.012836 -1.828127 1.641654
                      CHANNELS 3 Zrotation Yrotation Xrotation
                      JOINT LeftHandThumb3
                      {
                        OFFSET 2.798515 0.0 -3e-06
                        CHANNELS 3 Zrotation Yrotation Xrotation
                        JOINT LeftHandThumbEnd
                        {
                          OFFSET 3.180793 -4e-06 4e-06
                          CHANNELS 3 Zrotation Yrotation Xrotation
                        }
                      }
                    }
                  }
                  JOINT LeftHandIndex1
                  {
                    OFFSET 3.247555 -0.531998 2.296169
                    CHANNELS 3 Zrotation Yrotation Xrotation
                    JOINT LeftHandIndex2
                    {
                      OFFSET 6.364578 0.01206 0.1786
                      CHANNELS 3 Zrotation Yrotation Xrotation
                      JOINT LeftHandIndex3
                      {
                        OFFSET 3.662364 0.0 0.0
                        CHANNELS 3 Zrotation Yrotation Xrotation
                        JOINT LeftHandIndex4
                        {
                          OFFSET 2.329242 4e-06 4e-06
                          CHANNELS 3 Zrotation Yrotation Xrotation
                          JOINT LeftHandIndexEnd
                          {
                            OFFSET 2.759615 -0.180537 -0.113024
                            CHANNELS 3 Zrotation Yrotation Xrotation
                          }
                        }
                      }
                    }
                  }
                  JOINT LeftHandMiddle1
                  {
                    OFFSET 3.163495 0.240981 1.000332
                    CHANNELS 3 Zrotation Yrotation Xrotation
                    JOINT LeftHandMiddle2
                    {
                      OFFSET 6.19078 -0.259278 -1.002548
                      CHANNELS 3 Zrotation Yrotation Xrotation
                      JOINT LeftHandMiddle3
                      {
                        OFFSET 4.35652 -4e-06 -1e-06
                        CHANNELS 3 Zrotation Yrotation Xrotation
                        JOINT LeftHandMiddle4
                        {
                          OFFSET 2.996877 -8e-06 0.0
                          CHANNELS 3 Zrotation Yrotation Xrotation
                          JOINT LeftHandMiddleEnd
                          {
                            OFFSET 2.304287 -0.294569 -0.031741
                            CHANNELS 3 Zrotation Yrotation Xrotation
                          }
                        }
                      }
                    }
                  }
                  JOINT LeftHandRing1
                  {
                    OFFSET 2.882643 -0.053652 -0.322543
                    CHANNELS 3 Zrotation Yrotation Xrotation
                    JOINT LeftHandRing2
                    {
                      OFFSET 5.854541 -0.486202 -1.373841
                      CHANNELS 3 Zrotation Yrotation Xrotation
                      JOINT LeftHandRing3
                      {
                        OFFSET 4.350578 0.0 3e-06
                        CHANNELS 3 Zrotation Yrotation Xrotation
                        JOINT LeftHandRing4
                        {
                          OFFSET 2.651321 7e-06 2e-06
                          CHANNELS 3 Zrotation Yrotation Xrotation
                          JOINT LeftHandRingEnd
                          {
                            OFFSET 1.936105 0.077687 -7.1e-05
                            CHANNELS 3 Zrotation Yrotation Xrotation
                          }
                        }
                      }
                    }
                  }
                  JOINT LeftHandPinky1
                  {
                    OFFSET 2.8655 -0.310005 -1.600378
                    CHANNELS 3 Zrotation Yrotation Xrotation
                    JOINT LeftHandPinky2
                    {
                      OFFSET 5.087849 -1.331141 -1.77123
                      CHANNELS 3 Zrotation Yrotation Xrotation
                      JOINT LeftHandPinky3
                      {
                        OFFSET 3.070974 4e-06 0.0
                        CHANNELS 3 Zrotation Yrotation Xrotation
                        JOINT LeftHandPinky4
                        {
                          OFFSET 1.549672 0.0 1e-06
                          CHANNELS 3 Zrotation Yrotation Xrotation
                          JOINT LeftHandPinkyEnd
                          {
                            OFFSET 1.944893 -0.157802 0.057219
                            CHANNELS 3 Zrotation Yrotation Xrotation
                          }
                        }
                      }
                    }
                  }
                }
              }
            }
          }
          JOINT RightShoulder
          {
            OFFSET -1.380118 23.180309 5.214158
            CHANNELS 3 Zrotation Yrotation Xrotation
            JOINT RightArm
            {
              OFFSET -15.037196 1.2e-05 -5.545604
              CHANNELS 3 Zrotation Yrotation Xrotation
              JOINT RightForeArm
              {
                OFFSET -28.736639 2e-06 -0.002597
                CHANNELS 3 Zrotation Yrotation Xrotation
                JOINT RightHand
                {
                  OFFSET -27.133619 -0.0 0.002613
                  CHANNELS 3 Zrotation Yrotation Xrotation
                  JOINT RightHandThumb1
                  {
                    OFFSET -2.274032 -1.383988 3.163127
                    CHANNELS 3 Zrotation Yrotation Xrotation
                    JOINT RightHandThumb2
                    {
                      OFFSET -4.011429 -1.827466 1.640914
                      CHANNELS 3 Zrotation Yrotation Xrotation
                      JOINT RightHandThumb3
                      {
                        OFFSET -2.794935 -4e-06 -3e-06
                        CHANNELS 3 Zrotation Yrotation Xrotation
                        JOINT RightHandThumbEnd
                        {
                          OFFSET -3.183852 4e-06 1e-06
                          CHANNELS 3 Zrotation Yrotation Xrotation
                        }
                      }
                    }
                  }
                  JOINT RightHandIndex1
                  {
                    OFFSET -3.253266 -0.520057 2.282866
                    CHANNELS 3 Zrotation Yrotation Xrotation
                    JOINT RightHandIndex2
                    {
                      OFFSET -6.341917 0.012471 0.178266
                      CHANNELS 3 Zrotation Yrotation Xrotation
                      JOINT RightHandIndex3
                      {
                        OFFSET -3.654871 -8e-06 -0.0
                        CHANNELS 3 Zrotation Yrotation Xrotation
                        JOINT RightHandIndex4
                        {
                          OFFSET -2.327586 0.0 1e-06
                          CHANNELS 3 Zrotation Yrotation Xrotation
                          JOINT RightHandIndexEnd
                          {
                            OFFSET -2.76179 -0.180656 -0.113078
                            CHANNELS 3 Zrotation Yrotation Xrotation
                          }
                        }
                      }
                    }
                  }
                  JOINT RightHandMiddle1
                  {
                    OFFSET -3.168106 0.246593 1.00103
                    CHANNELS 3 Zrotation Yrotation Xrotation
                    JOINT RightHandMiddle2
                    {
                      OFFSET -6.180828 -0.258836 -1.000895
                      CHANNELS 3 Zrotation Yrotation Xrotation
                      JOINT RightHandMiddle3
                      {
                        OFFSET -4.348901 0.0 -0.0
                        CHANNELS 3 Zrotation Yrotation Xrotation
                        JOINT RightHandMiddle4
                        {
                          OFFSET -3.00024 -4e-06 -2e-06
                          CHANNELS 3 Zrotation Yrotation Xrotation
                          JOINT RightHandMiddleEnd
                          {
                            OFFSET -2.30252 -0.29437 -0.031706
                            CHANNELS 3 Zrotation Yrotation Xrotation
                          }
                        }
                      }
                    }
                  }
                  JOINT RightHandRing1
                  {
                    OFFSET -2.88569 -0.067952 -0.308858
                    CHANNELS 3 Zrotation Yrotation Xrotation
                    JOINT RightHandRing2
                    {
                      OFFSET -5.854198 -0.48613 -1.373731
                      CHANNELS 3 Zrotation Yrotation Xrotation
                      JOINT RightHandRing3
                      {
                        OFFSET -4.33881 -4e-06 -0.0
                        CHANNELS 3 Zrotation Yrotation Xrotation
                        JOINT RightHandRing4
                        {
                          OFFSET -2.654903 -4e-06 4e-06
                          CHANNELS 3 Zrotation Yrotation Xrotation
                          JOINT RightHandRingEnd
                          {
                            OFFSET -1.933568 0.077527 -5.2e-05
                            CHANNELS 3 Zrotation Yrotation Xrotation
                          }
                        }
                      }
                    }
                  }
                  JOINT RightHandPinky1
                  {
                    OFFSET -2.866425 -0.342796 -1.584145
                    CHANNELS 3 Zrotation Yrotation Xrotation
                    JOINT RightHandPinky2
                    {
                      OFFSET -5.091371 -1.332055 -1.772385
                      CHANNELS 3 Zrotation Yrotation Xrotation
                      JOINT RightHandPinky3
                      {
                        OFFSET -3.062664 -4e-06 1e-06
                        CHANNELS 3 Zrotation Yrotation Xrotation
                        JOINT RightHandPinky4
                        {
                          OFFSET -1.546529 4e-06 -2e-06
                          CHANNELS 3 Zrotation Yrotation Xrotation
                          JOINT RightHandPinkyEnd
                          {
                            OFFSET -1.945119 -0.157718 0.057211
                            CHANNELS 3 Zrotation Yrotation Xrotation
                          }
                        }
                      }
                    }
                  }
                }
              }
            }
          }
        }
      }
    }
    JOINT LeftLeg
    {
      OFFSET 10.043214 -8.434526 2.595655
      CHANNELS 3 Zrotation Yrotation Xrotation
      JOINT LeftShin
      {
        OFFSET -1e-06 -43.221752 -0.802913
        CHANNELS 3 Zrotation Yrotation Xrotation
        JOINT LeftFoot
        {
          OFFSET 1e-06 -42.155094 -3.481523
          CHANNELS 3 Zrotation Yrotation Xrotation
          JOINT LeftToeBase
          {
            OFFSET 0.0 -5.059472 13.231529
            CHANNELS 3 Zrotation Yrotation Xrotation
            JOINT LeftToeEnd
            {
              OFFSET -0.009607 -1.647619 6.513017
              CHANNELS 3 Zrotation Yrotation Xrotation
            }
          }
        }
      }
    }
    JOINT RightLeg
    {
      OFFSET -10.047278 -8.29526 2.620317
      CHANNELS 3 Zrotation Yrotation Xrotation
      JOINT RightShin
      {
        OFFSET 1e-06 -43.362206 -0.805556
        CHANNELS 3 Zrotation Yrotation Xrotation
        JOINT RightFoot
        {
          OFFSET 2e-06 -42.117393 -3.478398
          CHANNELS 3 Zrotation Yrotation Xrotation
          JOINT RightToeBase
          {
            OFFSET -0.0 -5.079609 13.284196
            CHANNELS 3 Zrotation Yrotation Xrotation
            JOINT RightToeEnd
            {
              OFFSET 0.009532 -1.634378 6.460591
              CHANNELS 3 Zrotation Yrotation Xrotation
            }
          }
        }
      }
    }
  }
}
MOTION
Frames: 4
Frame Time: 0.03333333333333333
0.0 0.0 0.0 0.0 -0.0 0.0 -4.690032 89.209076 1.702223 -3.321587 -1.500139 -8.746691 -0.547458 -0.805938 6.369071 -0.882198 -1.368575 -2.889615 -1.357062 -3.686439 13.548899 9.211165 -3.516902 24.58453 -0.121494 1.228608 -4.126187 9.438027 -0.982034 -20.142132 7.7e-05 -2.4e-05 6e-06 0.07011 0.016085 -0.036874 0.529772 -3.708619 -10.541122 -0.388885 3.76011 -10.605636 -2.08937 3.515248 18.073704 -56.381676 32.509151 -58.950409 177.498245 -79.539047 -176.018341 27.735247 12.874872 -19.746147 -5.8821 9.861278 0.702592 -10.936863 -0.360576 7.156203 2e-06 8.77482 -1e-06 -15.299714 17.732624 6.194398 -1.844031 2.498502 -2.507276 -10.163592 4.67894 4.621106 -20.976006 -5e-06 6e-06 -21.226269 2.451696 -3.593992 -1e-06 -7e-06 0.0 -1.362681 2.240796 -0.746322 -21.3349 0.584906 3.008324 -13.821203 -2e-06 5e-06 -23.887156 -0.249079 -0.839477 -62.162277 2.767616 -0.844206 -0.294026 1.679685 0.833256 -14.218199 0.093213 1.300581 -34.212025 -0.287563 0.96718 -20.033199 0.964537 1.212846 -0.0 2e-06 0.0 -3.440386 0.788232 0.501658 -15.928176 -3.167308 2.999707 -6.338822 -3e-06 0.0 -18.123436 3.648177 -4.905657 -6e-06 -2e-06 -3e-06 7.557593 -7.824241 19.094873 56.894798 -28.026421 -47.872929 -168.185867 73.172623 -170.03688 -22.140898 -2.155959 -25.708054 2.24354 -5.255033 -3.180158 14.282883 -0.826595 6.952507 -2e-06 -12.690598 0.0 16.310976 -16.843876 2.309443 1.665664 -1.955921 -2.878298 4.727798 -4.170584 4.993925 11.020519 3e-06 0.0 12.109044 -3.735714 -2.866781 0.0 -0.0 1e-06 1.291985 -1.928548 -1.498088 14.80012 0.567469 3.865611 14.242561 -1.341735 -6.660651 19.631952 0.143925 -0.64824 49.30183 -0.202918 -6.299867 0.353028 -1.51115 -0.031941 20.222784 3.684308 2.316636 18.787266 4e-06 3e-06 10.751622 -0.479869 1.397908 0.0 -0.0 1e-06 3.273805 0.305948 -0.58011 21.486803 11.830369 2.266139 8.162922 -0.0 1e-06 18.399076 -3.798985 -4.940568 3e-06 -0.0 1e-06 1.548761 -3.524796 -14.385598 0.123547 0.250041 70.747635 2.674747 -0.636199 -19.93622 1.932162 -1.890133 -14.39125 -0.0 0.0 1e-06 2.765346 2.01241 -19.202694 0.238603 0.178615 56.766613 -0.317404 0.755255 -26.165525 -1.487085 0.737036 -2.837224 0.0 0.0 -1e-06 
0.0 0.0 0.0 0.0 -0.0 0.0 -5.184912 89.08374 -0.721842 -4.037048 -1.06261 -7.148614 -0.592896 -0.842759 8.273698 -1.010178 -1.619328 -2.244719 -1.797502 -3.884949 14.118844 10.64529 -3.039311 20.801191 -0.263325 1.462925 -4.004043 9.432023 -0.250047 -21.759233 7.7e-05 -2.3e-05 6e-06 0.059059 0.125965 -0.06989 0.57254 -3.566317 -10.482485 -0.453511 3.83545 -10.549896 -1.630702 -1.942014 16.326544 -58.082733 24.677298 -66.295311 171.78653 -77.384506 -169.411636 36.122574 10.618742 -16.132402 -5.882102 9.86128 0.702591 -10.936866 -0.360573 7.156206 0.0 8.774821 0.0 -15.499102 17.853554 6.229388 -1.844031 2.498502 -2.507277 -10.163595 4.678944 4.621109 -20.976011 -2e-06 2e-06 -21.226276 2.451695 -3.593998 1e-06 -7e-06 -0.0 -1.362681 2.2408 -0.746322 -21.334906 0.584912 3.008322 -13.821207 -1e-06 3e-06 -23.887157 -0.249076 -0.839481 -62.677963 2.722698 -0.888277 -0.294026 1.679688 0.833256 -14.218201 0.093216 1.300581 -34.212032 -0.287557 0.967172 -20.033201 0.96454 1.212845 -1e-06 1e-06 1e-06 -3.440387 0.788233 0.501656 -15.928179 -3.167307 2.999709 -6.338823 -1e-06 3e-06 -18.12344 3.648183 -4.905669 -4e-06 -0.0 -2e-06 7.717356 -4.994359 19.117439 57.777378 -25.497507 -45.378437 -171.125046 72.261391 -172.64537 -21.693087 -4.559834 -19.449049 2.243542 -5.255037 -3.180159 14.282886 -0.826598 6.952503 1e-06 -12.690601 -0.0 16.210627 -16.988323 2.280206 1.665666 -1.955922 -2.878299 4.727798 -4.170587 4.993925 11.020526 2e-06 -3e-06 12.109053 -3.735716 -2.866784 -1e-06 -0.0 -1e-06 1.291985 -1.92855 -1.498089 14.800125 0.567466 3.865607 14.242566 -1.341741 -6.660656 19.63196 0.14392 -0.648246 48.486706 -0.501871 -6.637779 0.353028 -1.511151 -0.031941 20.222786 3.684304 2.316632 18.78727 2e-06 -2e-06 10.751625 -0.479869 1.397904 1e-06 -1e-06 0.0 3.273806 0.305946 -0.580111 21.486805 11.830368 2.266134 8.162926 1e-06 -0.0 18.399076 -3.798987 -4.940574 3e-06 1e-06 -2e-06 2.619635 -5.369928 -19.313894 0.195655 0.205948 73.013695 1.856881 -0.70371 -18.495977 1.961326 -1.942052 -14.397223 0.0 0.0 1e-06 3.760562 2.220772 -23.554422 0.162104 0.148179 58.024467 -0.815603 1.477921 -24.229294 -1.487049 0.751441 -3.125008 -0.0 -0.0 -1e-06 
0.0 0.0 0.0 0.0 -0.0 0.0 -5.706419 89.402702 -3.714991 -4.549847 -0.16671 -5.183165 -0.904905 -0.799993 10.334655 -1.213982 -1.808517 -1.374491 -2.229787 -3.917813 14.931005 11.932201 -2.426255 16.142719 -0.291433 2.086221 -3.893062 9.009352 0.913213 -23.201435 7.7e-05 -2.3e-05 6e-06 0.06022 0.130808 -0.098441 0.62112 -3.545368 -10.49419 -0.499168 3.822695 -10.53106 -1.053183 -7.786018 15.054212 -56.275352 14.829611 -70.322311 168.826126 -73.351128 -166.096222 44.949184 2.848974 -12.503689 -5.882103 9.861276 0.702591 -10.936866 -0.360572 7.156204 1e-06 8.774817 0.0 -15.829321 18.005032 6.502032 -1.844031 2.498501 -2.507276 -10.163597 4.678938 4.621109 -20.976011 -3e-06 5e-06 -21.226273 2.451696 -3.593993 0.0 -6e-06 -1e-06 -1.36268 2.2408 -0.746323 -21.334908 0.584909 3.008326 -13.821207 -2e-06 4e-06 -23.887159 -0.249076 -0.839478 -63.74522 2.611171 -0.940197 -0.294024 1.679682 0.833255 -14.218204 0.093213 1.300584 -34.212032 -0.28756 0.967177 -20.033205 0.964539 1.212846 0.0 1e-06 0.0 -3.440387 0.788235 0.501655 -15.928177 -3.167306 2.999707 -6.338825 -1e-06 1e-06 -18.123436 3.648182 -4.905665 -5e-06 2e-06 -0.0 7.684243 -1.836383 18.937822 60.292976 -21.347761 -42.579292 -175.098877 69.804016 -176.333481 -19.781506 -6.817139 -11.437834 2.243539 -5.255033 -3.180158 14.282885 -0.826592 6.952503 -5e-06 -12.690599 1e-06 16.423594 -16.984316 2.2179 1.665663 -1.955921 -2.878298 4.727797 -4.170584 4.993923 11.02052 5e-06 0.0 12.109043 -3.735714 -2.866782 -0.0 0.0 1e-06 1.291985 -1.928548 -1.498091 14.800122 0.567468 3.865609 14.242566 -1.341735 -6.660653 19.631962 0.143927 -0.648241 48.176273 -0.779085 -6.894952 0.353031 -1.511149 -0.031939 20.222784 3.684313 2.316632 18.787266 5e-06 3e-06 10.751624 -0.479868 1.397909 0.0 -0.0 1e-06 3.273805 0.305947 -0.58011 21.486805 11.830372 2.266135 8.162924 1e-06 0.0 18.399075 -3.798983 -4.94057 3e-06 2e-06 -2e-06 3.910579 -6.871969 -24.92135 0.199129 -0.01482 74.290344 0.590935 -1.016965 -15.802261 2.022449 -2.019859 -14.685168 0.0 -0.0 2e-06 4.334632 2.792719 -28.079556 0.115672 0.11288 57.912811 -1.476053 2.436536 -21.218847 -1.499363 0.828629 -3.946744 0.0 0.0 -1e-06 
0.0 0.0 0.0 0.0 -0.0 0.0 -6.259538 89.870445 -6.93419 -4.715163 1.455863 -2.657026 -1.509565 -0.733794 12.200388 -1.406155 -1.935756 -0.4367 -2.416474 -3.952056 15.917563 12.605999 -1.816403 11.019564 0.009894 2.934545 -3.799283 8.140551 1.747967 -23.807594 7.7e-05 -2.2e-05 6e-06 0.038769 0.162829 -0.084305 0.656413 -3.524749 -10.545481 -0.577969 3.867714 -10.538832 -0.575788 -14.024295 14.630694 -50.03434 5.211326 -69.651649 168.002838 -70.037819 -165.414688 48.16898 -7.491515 -7.693162 -5.882104 9.861279 0.702591 -10.936872 -0.360573 7.156205 2e-06 8.774819 0.0 -15.809658 18.252245 6.707517 -1.844032 2.498502 -2.507275 -10.163599 4.678943 4.621109 -20.976023 -1e-06 7e-06 -21.226288 2.451701 -3.593994 1e-06 -6e-06 -2e-06 -1.362682 2.240797 -0.746323 -21.334911 0.584912 3.008326 -13.821213 1e-06 6e-06 -23.887163 -0.249073 -0.839481 -63.444351 2.408219 -1.223043 -0.294026 1.679684 0.833256 -14.218205 0.093218 1.300582 -34.212048 -0.287557 0.967175 -20.033209 0.964541 1.212844 -0.0 -0.0 1e-06 -3.440388 0.788233 0.501656 -15.928185 -3.167305 2.999709 -6.338826 0.0 3e-06 -18.123446 3.648184 -4.905664 -4e-06 0.0 -2e-06 7.654708 1.374323 18.618738 62.926731 -14.781935 -39.819305 -176.486191 66.879639 -177.152161 -16.754942 -8.510845 -2.230222 2.243541 -5.255036 -3.180156 14.28289 -0.826597 6.952504 -0.0 -12.690604 1e-06 16.422876 -16.990791 2.309068 1.665666 -1.955921 -2.878296 4.727798 -4.170587 4.993922 11.020526 1e-06 1e-06 12.109051 -3.735717 -2.866781 1e-06 -1e-06 2e-06 1.291986 -1.928549 -1.498089 14.800125 0.567467 3.865608 14.242571 -1.341737 -6.660655 19.631968 0.143923 -0.648246 48.822872 -0.997896 -6.856949 0.353028 -1.51115 -0.03194 20.222788 3.684307 2.316632 18.78727 -1e-06 1e-06 10.751627 -0.47987 1.397906 1e-06 1e-06 -2e-06 3.273808 0.305948 -0.580109 21.486809 11.830371 2.266133 8.162928 -1e-06 -0.0 18.39908 -3.798988 -4.940572 3e-06 0.0 -0.0 5.346516 -7.043811 -30.853884 0.046266 -0.35265 74.151154 -0.899527 -2.332052 -13.045283 2.082609 -2.172228 -15.437857 0.0 -0.0 2e-06 3.994303 3.337534 -32.719898 0.229179 0.156971 56.576645 -1.759294 4.208043 -17.992641 -1.537653 0.866615 -4.731839 0.0 0.0 -1e-06 
